<?xml version="1.0" encoding="UTF-8" standalone="no"?>
<svg
   xmlns:dc="http://purl.org/dc/elements/1.1/"
   xmlns:cc="http://creativecommons.org/ns#"
   xmlns:rdf="http://www.w3.org/1999/02/22-rdf-syntax-ns#"
   xmlns:svg="http://www.w3.org/2000/svg"
   xmlns="http://www.w3.org/2000/svg"
   xmlns:sodipodi="http://sodipodi.sourceforge.net/DTD/sodipodi-0.dtd"
   xmlns:inkscape="http://www.inkscape.org/namespaces/inkscape"
   width="7.7002664in"
   height="9.1359167in"
   viewBox="0 0 195.58677 232.05228"
   version="1.1"
   id="svg8"
   inkscape:version="1.0rc1 (09960d6, 2020-04-09)"
   sodipodi:docname="lion.svg">
  <defs
     id="defs2" />
  <sodipodi:namedview
     fit-margin-left="0.8"
     fit-margin-right="0.8"
     fit-margin-bottom="0.8"
     fit-margin-top="0.8"
     inkscape:pagecheckerboard="true"
     units="in"
     id="base"
     pagecolor="#ffffff"
     bordercolor="#666666"
     borderopacity="1.0"
     inkscape:pageopacity="0.0"
     inkscape:pageshadow="2"
     inkscape:zoom="1.4654728"
     inkscape:cx="334.19024"
     inkscape:cy="345.94943"
     inkscape:document-units="mm"
     inkscape:current-layer="layer1"
     inkscape:document-rotation="0"
     showgrid="false"
     inkscape:window-width="1536"
     inkscape:window-height="960"
     inkscape:window-x="0"
     inkscape:window-y="0"
     inkscape:window-maximized="0" />
  <metadata
     id="metadata5">
    <rdf:RDF>
      <cc:Work
         rdf:about="">
        <dc:format>image/svg+xml</dc:format>
        <dc:type
           rdf:resource="http://purl.org/dc/dcmitype/StillImage" />
        <dc:title></dc:title>
      </cc:Work>
    </rdf:RDF>
  </metadata>
  <g
     transform="translate(-8.3239059,-31.939984)"
     inkscape:label="Layer 1"
     inkscape:groupmode="layer"
     id="layer1">
    <path
       style="fill:#010101;stroke:none;stroke-width:0.352778"
       d="m 31.147817,122.66949 c -4.486381,-8.03451 7.352912,-4.42842 8.466667,-11.64167 1.931035,-0.23389 3.119367,-0.91969 4.233333,1.05834 -2.672715,1.33244 -3.116545,3.30235 -4.649258,5.64409 -2.305262,3.52213 -4.932045,5.54708 -3.817409,10.23091 l -1.411111,-1.41111 h -0.352777 c 0.779039,2.08985 0.973843,7.10423 3.876745,7.38646 1.293001,0.12559 2.500419,-1.02941 3.884366,-1.03646 l -0.705556,-1.41112 1.763889,-0.70555 -1.058333,-4.23333 c 3.648816,-0.15664 5.22164,-1.07562 6.35,-4.58611 l 1.058333,0.35277 c 0.363891,-3.22862 2.595739,-1.83056 4.938889,-2.11666 l -1.763889,1.41111 c 0.941529,0.51646 1.837973,1.40158 2.116667,0 h 0.352778 c 0.647347,2.11243 2.821869,1.68663 3.175,-0.35278 l 4.586111,-0.35278 -0.352778,-1.41111 3.175,0.35278 -0.705555,-1.05833 v -0.35278 l 1.411111,-0.35278 -1.763889,-1.41111 1.058333,-3.175 h -0.705555 v -0.70556 l 0.352778,-0.35277 h 0.352777 0.352778 l 1.411111,1.05833 -1.058333,-1.41111 1.411111,-1.76389 h 0.352778 0.352778 v 0.70555 h 2.822222 l -1.763889,-2.11666 3.880556,1.41111 -1.763889,-2.11667 4.586111,-0.35278 -0.352778,-1.05833 -0.705555,0.35278 h -0.352778 l 2.822222,-2.11667 -1.058333,1.05834 1.058333,1.05833 1.058333,-1.05833 -1.058333,2.11666 h 2.116667 v -1.05833 l 3.175,-2.46944 -0.352778,-1.41111 0.705556,1.41111 2.469444,0.70555 1.763889,-5.997224 2.469444,-4.93889 4.938891,8.819454 c 2.32128,-2.40277 2.31352,2.07856 4.58611,2.46944 -0.0829,-3.8795 -2.35444,-5.36257 -0.35278,-9.172224 h 0.35278 c 1.241068,2.92418 0.77646,5.850474 1.357488,8.819444 0.29704,1.518 1.37936,2.58798 1.35079,4.23333 -0.043,2.49802 -0.73555,4.84646 -0.55986,7.40834 0.54433,7.95337 0.33267,16.06585 1.08655,23.98888 0.63888,6.71301 1.97238,14.44625 0.92287,21.16667 -0.72425,4.63938 -6.280858,6.07977 -8.028158,9.9381 -0.52705,1.16311 0.16756,2.62961 0.34254,3.82023 h -1.41111 l 0.35278,-0.70555 h -1.41111 c -1.126775,2.29094 -4.155725,3.40854 -6.350003,4.53319 -6.056489,3.1048 -13.179425,6.81108 -20.108334,7.10847 v -0.35277 l 2.116667,-1.76389 -1.411111,0.70555 h -0.352778 l -1.763889,-0.35277 -2.822222,-2.11667 c 7.64787,-1.88419 14.761634,-4.04354 22.124459,-6.87987 2.816225,-1.08479 5.711825,-3.37785 8.567211,-1.5868 l 0.35278,-7.05555 -1.411116,-0.35278 c 1.184986,-2.85891 4.738156,-4.7752 5.492746,-7.44008 1.19063,-4.203 0.5394,-9.43081 0.26494,-13.72659 -0.27234,-4.26014 0.39935,-8.89247 0.0198,-13.05277 -0.19438,-2.12549 -0.91228,-4.13421 -1.01494,-6.35141 -0.0504,-1.08515 0.38558,-2.1075 0.31926,-3.17359 -0.12241,-1.97415 -2.77213,-9.7462 1.26824,-8.81945 l -1.05833,-5.29166 h -0.35278 c -1.55611,3.22403 -1.72861,-2.01895 -2.11667,-3.175 l -4.233333,6.35 v 0.35277 h 4.233333 v 0.35278 c -5.140325,1.44498 -4.830939,3.20287 -5.291667,8.11389 l 4.233337,0.70556 v 0.35277 l -2.822225,1.05834 h -1.763889 l -1.058334,2.11666 c 0.594431,1.90077 -0.501297,2.67371 -1.411111,4.23334 l -1.411111,-0.70556 -1.763889,3.175 1.411111,1.05833 h -1.763889 c 0.568678,1.36561 -0.04868,1.89442 -1.411111,2.11667 l 0.352778,1.05833 c -1.284464,0.84138 -0.748947,1.70745 0,2.82223 -3.037417,0.65087 1.510594,3.43041 1.636536,4.59598 0.08043,0.74507 -0.706261,1.74625 -0.93098,2.45957 l 2.116666,-0.35278 -0.705555,2.11667 c 5.361516,0.0635 5.069064,8.85014 4.038247,12.7 -0.321028,1.19909 -1.192036,2.2666 -1.264708,3.52778 -0.08043,1.39135 0.898172,2.67229 1.459794,3.88055 -1.718733,0.78493 -2.899833,2.63314 -4.587522,3.20534 -1.586089,0.53764 -3.015897,-0.30092 -4.5847,-0.0713 -3.736623,0.54751 -8.397523,2.40101 -11.641667,4.27426 l 0.352778,-1.41111 -0.352778,-0.35278 h -0.705556 v 2.46944 l -7.055555,1.05834 5.291666,-2.46945 c -1.508125,-3.94899 2.052109,-5.02461 4.404431,-7.79286 2.151592,-2.53118 3.827639,-5.73193 5.826125,-8.43492 -1.782586,0.0561 -4.901494,-2.3181 -2.718506,-4.0259 2.218973,-1.73602 7.616473,2.15018 8.17492,-3.03494 0.390878,-3.6315 -6.346472,-8.89106 -2.986969,-11.2836 l -1.411112,-1.41111 v -0.35278 h 1.763889 v -1.05829 h -1.411111 l 1.058334,-1.05834 -1.058334,-1.05833 c -0.634647,1.17581 -1.113366,1.70603 -2.469444,1.76389 l -4.233334,3.52778 c 0.05856,-1.30458 0.616303,-1.57939 1.763889,-2.11667 l -2.822222,-1.41111 0.705556,-1.41111 -1.058334,-4.93889 -3.527778,-1.41111 -0.352777,1.05833 -2.116667,0.35278 0.352778,1.05833 -1.763889,0.70556 v 0.35278 l 4.938889,2.46944 c -2.679348,-0.66005 -4.323292,-0.79128 -6.702778,0.70556 l 0.352778,-1.76389 -2.116667,2.82222 1.411111,-0.35278 6.702778,2.46945 1.058333,-1.05834 0.705556,1.76389 h 0.352778 l 0.352777,-1.05833 c 1.078795,2.07539 2.384425,2.11137 3.860095,3.69817 1.874661,2.01577 3.848453,6.28756 3.548239,9.00183 -2.076803,-2.61585 -3.572228,-6.60929 -6.702778,-8.11389 l 0.352778,1.41111 c -2.299406,-1.14935 -4.359275,-2.29658 -7.055556,-1.76389 l 6.35,2.82222 -0.705555,-0.70555 -2.469445,0.70555 c 1.038578,2.08704 2.90195,3.61986 5.291667,3.175 l -3.527778,5.64445 1.763889,1.76389 c -1.222728,0.82902 -1.464381,2.23661 -2.548467,3.22403 -4.636911,4.22416 -10.034411,10.57169 -11.532306,16.8843 -0.437797,1.84609 0.983192,3.46534 0.422275,5.29167 -1.119363,3.6449 -4.232028,6.58953 -5.594561,10.23055 -3.355058,8.96514 -4.852247,18.4143 -5.792788,27.86945 -0.564197,5.67196 0.255305,11.35415 1.410829,16.93333 0.638881,3.08469 1.187768,5.78626 4.585018,6.70278 -0.01767,-2.16288 0.33475,-5.00733 -0.0019,-7.06932 -0.207187,-1.26894 -1.74491,-3.11996 -0.212337,-4.2097 0.964212,-0.6858 2.942061,-0.45861 4.094797,-0.64452 2.966509,-0.47907 5.921375,-1.30563 8.819445,-2.11878 9.560631,-2.68147 19.943234,-5.87446 28.927778,-10.23903 8.041925,-3.90666 16.697323,-8.11177 23.888353,-13.4747 4.52225,-3.37255 10.45245,-9.72326 15.97554,-10.92729 l 4.03013,-3.94194 7.71349,-7.14939 14.49281,-15.20649 6.8132,-8.94679 2.90195,-1.90888 1.31375,-3.31541 8.59578,-12.44776 0.35278,2.11666 v 0.35278 c -0.92428,0.81668 -0.26176,1.58468 0.35278,2.46945 h 0.70555 l 2.46945,-3.175 0.70555,3.175 1.05833,0.35277 c 1.68381,-4.49615 0,-9.77758 0,-14.46388 h -0.35277 l -4.23334,-2.82223 c 0.52211,-1.97696 1.56351,-2.55058 3.52778,-2.82222 -1.7653,-2.8254 -3.70558,-6.32742 -6.35529,-8.38235 -4.04883,-3.13972 -9.33097,-3.55847 -10.22526,-9.60931 h -0.35278 c -0.96591,4.16277 3.25614,11.00313 4.97064,14.78491 0.76059,1.67781 1.8923,2.66489 1.73214,4.61786 l 1.05833,0.35278 0.35278,-0.35278 v -1.41111 l 2.46944,2.11667 c -0.25682,1.47708 0.76765,3.07587 0.3997,4.32011 -1.97626,6.68832 -6.13657,10.99221 -9.94798,16.65747 -0.96203,1.4298 -0.46179,3.28718 -1.34514,4.7752 -3.18629,5.36821 -9.17822,10.73643 -13.74634,14.94895 -3.24838,2.99544 -7.04674,8.77429 -11.69635,9.39271 l -4.58611,-44.09722 h 0.35278 l 1.41111,1.76389 -0.35278,-4.93889 -1.76389,1.41111 -1.52012,-15.52222 -2.61761,-20.108334 -1.48766,-8.466665 0.20778,-2.909711 3.65372,-0.09384 11.99445,-1.582561 c -0.77823,-1.688041 -1.50354,-2.778477 0,-4.233333 v 0.705556 l 4.58611,-1.763889 c -1.43263,-5.961592 -6.91092,-9.962092 -10.23056,-14.816667 l 6.35,4.233334 -1.41111,-2.116667 1.41111,0.352778 c -2.70933,-2.955925 -7.10318,-4.576939 -10.58333,-6.459008 -5.54285,-2.997553 -11.76655,-6.569534 -17.99167,-7.823588 -9.55463,-1.924756 -21.461238,0.377472 -31.044445,1.52788 -5.992284,0.719349 -16.829617,1.151855 -21.366339,5.624724 -1.249187,1.231195 -0.858662,3.417358 -0.858662,5.013325 0,3.737681 1.961445,12.4206 -0.826911,15.183555 -2.875491,2.849386 -7.278511,3.752497 -10.173159,6.624461 -6.258136,6.209595 -10.512107,14.42967 -16.649171,20.79131 -3.435244,3.56094 -10.823681,9.86966 -4.453537,14.90345 M 127.80893,58.463937 v 0.352778 c -13.1759,0 -27.51984,-0.1016 -40.569445,1.88207 -3.42512,0.5207 -10.989381,0.16263 -13.132859,3.488972 -0.795514,1.234369 -0.04374,3.160536 0.04833,4.506736 0.215547,3.142544 0.282575,6.401152 0.03175,9.525 -2.054578,-1.0033 -3.341511,-1.261181 -4.586111,1.058333 l -1.058334,-1.058333 h -1.763889 c 0.331259,-1.2319 1.033992,-3.638198 -0.705555,-3.880556 l 1.411111,-3.175 v -0.352778 h -1.411111 c 0.713669,-3.120319 0.718961,-7.536038 3.028597,-10.005835 3.047294,-3.258609 9.825567,-3.4798 13.904736,-4.242506 5.277909,-0.986719 10.544532,-0.701675 15.875002,-0.934861 7.043208,-0.308681 14.509048,-1.654704 21.519448,-0.156281 2.58868,0.553156 4.98263,1.98367 7.40833,2.992261 m -7.40833,15.522222 -2.11667,-1.411111 h -0.35278 l -3.175,2.116667 c 2.05599,0.236361 2.58586,1.601964 2.82222,3.527778 l 2.11667,1.763888 1.76389,-0.352777 -0.70556,9.172222 c 2.75449,0.210255 3.33199,3.080102 4.93889,4.93889 -0.31044,5.92278 1.4732,11.802174 2.31846,17.638884 1.4732,10.17447 2.76154,20.4657 3.73874,30.69167 0.49671,5.19783 2.6102,12.62627 0.99836,17.63889 2.7118,0.32773 -0.0836,3.2706 -0.96696,4.18606 -2.79154,2.89278 -7.1173,8.15834 -11.38026,8.51394 v -4.93889 l 1.05833,0.70555 7.40833,-4.93889 -3.175,-5.64444 c 1.48414,0.30551 2.10961,1.77659 2.46945,3.175 h 1.41111 l -1.05833,-1.76389 v -0.70555 l 1.41111,-0.70556 -1.41111,-2.46944 c 3.5186,-0.71861 1.59808,-3.38103 0.70555,-5.64445 h 0.35278 l 1.41111,1.05833 -2.11667,-2.82222 -0.35277,1.05834 h -0.35278 l -0.35278,-1.05834 1.41111,-2.11666 0.35278,-1.41112 c -0.93557,-0.11571 -1.24284,-0.70379 -1.14477,-1.74272 0.2413,-2.55728 1.17087,-5.15232 0.97826,-7.78228 -0.13265,-1.80763 -1.51448,-2.38442 -0.53905,-4.23333 l -1.41111,0.35278 -0.70555,-5.64444 -1.76389,0.35277 c 1.13241,-2.58233 2.73932,-5.89456 -1.05834,-7.05555 v -0.35278 l 1.76389,-1.76389 -1.41111,0.70556 -1.41111,-2.82223 1.76389,1.05834 -4.58611,-2.82222 v -0.35278 l 0.35278,-2.82222 h -2.11667 v 1.41111 h -0.35278 l -2.11666,-5.64445 v 3.52778 l 1.05833,0.35278 -0.70556,3.52778 -1.76389,1.05833 -2.82222,-18.697224 h -0.70555 c -0.1016,18.417824 2.89313,37.040964 4.64608,55.386114 0.51929,5.4363 1.17969,10.80629 1.76248,16.22777 0.19261,1.79106 1.25377,4.53673 0.72848,6.27627 -0.44908,1.48696 -2.78059,2.92982 -3.93065,3.86998 -3.5634,2.91253 -8.74254,8.42045 -13.43695,8.90375 l -0.705558,-4.23333 c 2.407708,0.85654 4.644318,-2.22567 5.644448,-4.23333 l 0.70556,0.70555 h 0.35277 c 0.17886,-2.26942 1.77412,-2.53612 3.52778,-3.52777 l -0.35278,-0.35278 -2.11666,0.70555 -0.35278,-2.11666 c 1.94768,-0.88618 3.46569,-2.78377 1.05833,-4.23334 v 3.175 l -3.175,-0.70555 0.35278,1.05833 h -1.41112 l -2.11666,3.175 0.70555,-3.52778 -4.938878,3.88056 c 0.26528,-5.32377 8.655398,-6.96419 10.409768,-11.64167 0.44802,-1.19486 -0.28928,-2.32233 -0.1898,-3.52778 0.50377,-6.10587 -3.03036,-15.80268 0.36336,-21.16666 -2.55376,-0.84773 -1.73637,-8.84837 -1.7653,-11.28889 -0.0981,-8.24618 -1.23331,-17.02894 -2.23132,-25.04722 -0.45438,-3.649134 -1.49648,-6.444894 -0.94227,-10.230557 h -1.05833 l 0.70555,-4.586111 -4.938888,6.350004 h -0.70555 c -1.93957,-3.341162 -4.715935,-4.83447 -8.113891,-6.350004 l 5.997221,-8.113888 c 2.22885,0.230364 5.536498,0.423333 7.747358,0.231422 1.41569,-0.122767 2.5781,-1.309158 3.54153,0.121355 l 3.52778,2.469445 h 0.35278 l 1.05833,-0.705556 -1.05833,2.116667 2.82222,0.352778 v -1.411111 h 0.35278 v 1.058333 l 2.11667,-2.469444 1.05833,0.352777 -1.05833,-1.058333 -1.76389,-3.175 1.76389,-0.352778 -1.05834,-2.116666 -2.46944,1.763889 0.35278,-1.058334 c -4.28379,0.0956 -8.74043,-1.970969 -13.052778,-1.520119 -5.00592,0.523875 -9.342972,4.342694 -13.758338,6.369402 -2.247548,1.031875 -4.979459,0.973667 -7.055556,2.206273 H 78.42004 76.656151 c -1.675694,-4.474281 -0.352778,-11.396133 -0.352778,-16.227778 10.057695,-3.176058 23.668569,-3.164064 33.866667,0.126647 3.54753,1.144412 9.2075,3.350331 10.23056,7.281686 m 17.63889,-7.408333 v 2.469445 0.352777 l 1.05833,0.352778 -2.11667,1.058333 0.70556,1.058334 v 0.352778 l -0.35278,1.411111 1.05833,-0.352778 -1.05833,1.411111 c -0.78599,-1.508125 -1.6383,-2.077508 -1.05833,-3.880556 -1.38078,-0.320675 -5.76016,-2.041525 -3.03424,-3.87103 1.23966,-0.832203 3.39795,-0.443794 4.79813,-0.362303 M 72.422818,67.63616 v 0.705555 l 0.705555,-0.705555 h -0.705555 m 57.150002,0.705555 v 0.352778 l -2.82222,-0.352778 h 2.82222 m -61.265861,0.235303 0.117828,0.23495 -0.117828,-0.23495 m 72.907531,1.175808 -2.11667,-0.705555 2.11667,0.705555 m -18.69723,-0.352778 v 1.058334 h -0.70555 v -1.058334 h 0.70555 m 23.28334,0 1.05833,1.058334 -1.05833,-1.058334 m -21.51945,0.705556 -0.35278,0.352778 0.35278,-0.352778 m -8.11389,1.411111 v 0.705556 l 0.35278,0.352777 h 0.70556 l 0.35277,-1.411111 -1.41111,0.352778 m 31.39723,-0.352778 0.70555,0.705556 -0.70555,-0.705556 m -20.81389,0.705556 -0.35278,0.352778 0.35278,-0.352778 m -2.11667,0.352778 v 1.058333 l -0.70556,-1.058333 h 0.70556 m 15.16944,0.705555 -0.35277,0.352778 0.35277,-0.352778 m -26.69363,0.940858 0.11783,0.23495 -0.11783,-0.23495 m 17.75672,0 -0.11783,0.23495 0.11783,-0.23495 m -51.152784,0.23495 0.23495,0.117828 -0.23495,-0.117828 m 49.153584,0.940859 -1.41111,-1.058334 1.41111,1.058334 m 14.81667,0 0.70556,1.411111 -1.76389,-0.352778 0.35277,-1.058333 h 0.70556 m -22.57778,0.352777 h 0.35278 l 0.35278,0.352778 v 0.705556 c -0.79411,-0.166864 -1.09996,-0.303389 -0.70556,-1.058334 m -6.70278,0.823031 c 0.2727,0 0.0564,0.175683 -0.11747,0.117828 l 0.11747,-0.117828 m 30.33889,1.293636 -1.05833,0.705556 1.05833,-0.705556 m -28.92777,0.352778 0.35277,0.352778 -0.35277,-0.352778 m 26.45833,0 0.35278,0.705555 h -0.70556 l 0.35278,-0.705555 m -25.75278,1.763889 1.05833,-1.058334 -1.05833,1.058334 m 30.69167,1.763889 v 0.352777 h 1.41111 v 1.411111 h -1.76389 l 0.35278,2.116667 1.41111,-1.763889 h 0.70555 c 1.46086,2.131483 2.26272,2.217914 1.05834,4.938889 l -2.11667,-0.352778 c 1.01388,1.335617 2.37102,0.431447 3.52778,-0.352778 l 0.35278,1.058334 h 0.35277 l -2.82222,-8.113889 -2.46944,0.705556 m -43.0389,0 -0.35277,1.411111 h 0.35277 v -1.411111 m 32.80834,0.705555 -0.35278,0.352778 0.35278,-0.352778 m -13.05278,2.116667 -1.05833,-1.058334 1.05833,1.058334 m 31.04445,0 v 0.705555 h 0.70555 v -0.705555 h -0.70555 m -40.56945,1.763889 1.41112,-1.411112 -1.41112,1.411112 m 31.39723,-1.058334 1.05833,1.058334 -1.05833,-1.058334 m -21.87223,0.470253 c 0.2727,0 0.0564,0.175683 -0.11747,0.117828 l 0.11747,-0.117828 m 25.04723,-0.117475 0.35277,0.352778 -0.35277,-0.352778 m -45.86112,0.352778 0.35278,1.058333 -0.35278,-1.058333 m 17.28612,0.705555 v 1.058334 h 0.35277 l 0.35278,-1.058334 h -0.70555 m 9.28969,0.588081 0.11783,0.23495 -0.11783,-0.23495 m -13.75833,0.352778 0.11783,0.23495 -0.11783,-0.23495 m -0.47025,3.645252 0.70555,-2.469444 c -2.07715,-0.310797 -2.01824,1.345142 -0.70555,2.469444 m -32.808336,-2.469444 0.352777,0.352778 c -0.644525,1.759302 -2.579864,2.776008 -4.233333,3.527777 1.034697,-2.04223 1.563158,-3.237794 3.880556,-3.880555 m 61.383336,0.352778 0.35278,0.352777 -0.35278,-0.352777 m -25.51748,0.470252 0.23495,0.117828 -0.23495,-0.117828 m -2.35197,0.235303 0.35278,0.352778 -0.35278,-0.352778 m 26.10556,0.352778 1.76389,2.469444 h 0.70555 c 0.26776,-1.707091 -0.81421,-2.543527 -2.46944,-2.469444 m 15.16944,-0.352778 0.70556,1.058334 -0.70556,-1.058334 m -79.02222,0.352778 -0.352778,0.352778 0.352778,-0.352778 m -3.175,0.352778 -1.058333,1.763889 1.411111,0.352777 1.411111,-1.411111 c -0.554919,3.199694 1.478844,2.137128 2.822222,4.233334 h -2.469444 c -0.779639,4.32047 -8.435975,8.937624 -12.7,8.113894 l 0.705555,-3.527784 -3.175,0.705564 v 1.05833 c 4.458758,2.15018 -0.748947,2.71039 -2.252486,3.8428 -1.829153,1.37725 -2.7813,3.02049 -5.155847,3.56553 0.0028,-3.55106 -0.289984,-3.57752 -2.116667,-6.35 l -3.880556,0.70556 -0.352778,-1.05834 -1.058333,0.35278 3.880556,-2.822224 v -0.35278 c -1.171681,-0.3877 -1.318472,-0.91369 -1.411111,-2.11666 3.913716,0.78704 8.916458,-3.34257 12.7,-4.586115 1.44533,1.240365 7.992181,2.485325 6.702778,-1.058333 l 1.763889,-0.705556 0.352777,1.411111 h 2.116667 l 1.763889,-2.116666 m 13.052778,0.352778 -0.705555,1.763888 -0.352778,-1.763888 h 1.058333 m 25.282522,0.117475 0.23495,0.117827 -0.23495,-0.117827 m 5.40915,-0.117475 0.70555,1.058333 -0.70555,-1.058333 m -1.41112,0.352777 v 1.763889 h 1.05834 l -0.35278,-1.763889 h -0.70556 m -49.388886,0.352778 -0.352777,0.352778 0.352777,-0.352778 m 52.916666,0 v 0.705556 h 0.70556 V 91.27227 h -0.70556 m 5.17419,0.235303 -0.11782,0.23495 0.11782,-0.23495 m 19.16748,0.470253 -0.35278,1.76389 c 1.04669,-0.30551 1.15958,-0.702735 1.05833,-1.76389 h -0.70555 m 6.35,0.352777 -1.41111,3.880553 0.35278,0.35278 0.70555,-0.35278 v 10.230554 h 1.05833 v -1.76388 h 0.70556 l 1.05833,2.82222 v 0.70555 h -1.41111 l 0.35278,2.46945 1.41111,-0.70556 c 1.0474,4.15678 5.03767,5.56366 3.52778,10.23056 l 1.76389,0.70555 v -1.41111 h 0.35278 l 0.70555,0.70556 c -0.60748,1.62524 -1.02764,3.17923 1.05834,3.52777 0.0416,-2.0327 0.871,-4.5032 -1.76389,-4.93888 l 1.41111,-3.175 -1.41111,1.05833 0.70555,-7.40833 c -2.95451,-0.4505 -1.94028,-5.03132 -2.46944,-7.76111 h -0.35278 v 2.46944 h -2.46945 l 1.41112,-1.05833 v -5.997224 h -1.05834 c -0.43427,-2.806 -1.26259,-4.785785 -4.23333,-4.586113 m -25.75278,0 0.70556,1.058333 c -0.79411,-0.166863 -1.09996,-0.303388 -0.70556,-1.058333 m 17.99167,0.352778 v 0.705555 h 0.70555 v -0.705555 h -0.70555 m -61.383336,1.058335 0.705555,3.88055 -1.411111,-0.70555 v 1.41111 c 1.975203,0.32949 2.010481,1.896184 0.705556,3.175004 -0.936273,-1.45662 -3.442053,-8.287107 0,-7.761114 m 76.552776,0 c 0.20461,4.7498 2.83351,9.927874 4.93889,14.111104 h 0.35278 c -0.98072,-4.23862 -2.68358,-10.625304 -5.29167,-14.111104 m -15.875,1.05833 0.35278,0.35278 -0.35278,-0.35278 m 0.35278,0.70556 -1.05833,0.70555 v 0.35278 l 1.05833,-1.05833 m 3.175,0 0.35278,0.35278 -0.35278,-0.35278 m -75.847223,0.35278 0.352777,0.35277 -0.352777,-0.35277 m 76.552783,0.35277 0.35277,0.35278 -0.35277,-0.35278 m -8.46667,1.05834 v 0.70555 h 0.70555 v -0.70555 h -0.70555 m 4.93889,1.05833 v 1.05833 h 0.70555 v -1.05833 h -0.70555 m 8.70197,0.94086 -0.11783,0.23495 0.11783,-0.23495 m -12.22975,0.11747 v 0.35278 h 1.05833 l -1.05833,-0.35278 m -3.175,0.705564 1.05833,0.70555 -1.05833,-0.70555 m -34.33692,0.58808 -0.11783,0.23495 0.11783,-0.23495 m 35.74803,-0.2353 0.35278,0.35277 -0.35278,-0.35277 m 3.175,1.76388 1.76389,-1.05833 -1.76389,1.05833 m -4.58611,-0.70555 -0.35278,0.35278 v 0.70555 l 0.35278,0.35278 1.41111,-0.70556 c -0.0335,1.99778 -1.11478,1.8789 -2.82222,1.76389 l -1.05833,1.41111 1.76388,4.93889 -1.76388,0.35278 -0.70556,3.52777 2.11667,0.70556 -1.41111,1.05833 4.58611,1.41111 v 0.70556 c -2.286,0.61771 -5.21476,0.41275 -5.64445,3.175 h 0.35278 l 2.82222,-1.76389 -0.70555,2.11667 c 1.26365,-0.26952 1.28658,-1.2827 1.41111,-2.46945 h 0.35278 l 0.35277,1.05834 h 0.35278 l 0.70556,-2.11667 h 0.35277 l 0.70556,1.41111 h 0.35278 l 1.05833,-0.70555 -0.35278,2.46944 h 0.35278 l 0.35278,-1.05833 h 0.70555 l 0.35278,1.41111 -2.11666,0.35278 -0.35278,-1.05834 h -0.35278 c -0.14287,1.63301 0.61454,1.94663 2.11667,2.11667 v -0.70556 h 0.70555 l 0.35278,1.05834 -1.05833,1.05833 c 3.55212,0.55457 4.16983,7.89905 4.23333,10.93611 l 2.46944,1.05833 -2.11666,2.46945 c 1.32785,-0.42863 4.0573,-0.17392 3.88055,-1.76389 l -1.41111,0.70555 0.35278,-1.76388 2.46944,1.05833 v -2.82222 c 1.39595,0.65652 2.0119,1.41605 3.52778,0.70555 -0.0603,1.86337 -0.60607,2.99861 -2.46944,3.52778 l 0.35278,1.41111 -1.05834,-0.35278 c 0.50553,1.50354 1.33386,1.1423 2.46945,0.35278 l -0.35278,3.175 -1.76389,0.70556 v -1.76389 l -1.41111,0.70555 -1.41111,-1.76389 c 0.53975,1.17229 0.24835,1.65735 -0.70556,2.46945 0.54681,2.50543 2.47227,0.93415 4.23334,1.76389 l 1.05833,-0.70556 c -0.17639,1.45204 -0.0815,2.63949 1.41111,3.175 l -0.70556,1.41111 -0.35277,-1.05833 -1.76389,0.70556 0.35278,-2.46945 -0.35278,-0.35278 h -2.46945 c -0.0967,1.28094 -0.62194,2.85221 1.05834,2.82223 l -0.35278,-1.05834 h 0.35278 l 3.55706,3.31894 1.38183,4.0894 h -2.11667 l 0.35278,1.76388 c -1.00295,-0.41733 -3.048,-2.88148 -1.05834,-3.175 l 0.70556,-1.76388 -0.35278,-1.41112 -3.175,1.76389 c 0.29245,-0.96908 0.34855,-1.41111 -0.70555,-1.41111 l -0.35278,-1.05833 h -0.35278 l -0.35278,1.76389 -1.05833,-0.35278 -0.35278,1.05833 -0.70555,-1.41111 -1.76389,1.05834 0.35277,1.41111 c -1.30774,0.17674 -2.04081,0.47872 -2.46944,1.76389 l -1.76389,-0.70556 0.70556,2.46944 -2.46945,-0.35277 v 0.35277 c 2.1964,1.40371 1.99849,4.35963 4.93889,4.58612 l 1.05833,-2.11667 0.70556,1.76389 1.05833,-1.76389 c 0.17604,1.62066 1.7392,4.46863 2.82223,1.76389 l -0.70556,-2.82222 1.41111,2.46944 3.175,-0.35278 1.05833,-2.82222 1.05834,0.70556 1.76389,-3.175 0.35277,1.05833 h 0.35278 l 0.70556,-3.52778 -2.82222,-0.70555 -0.70556,-2.46945 1.41111,-1.76389 h 0.35278 v 3.88056 h 0.35278 c 0.066,-1.53353 0.0413,-3.34892 1.41111,-4.23334 l -0.35278,2.46945 3.175,-2.46945 -1.05833,0.35278 v -2.82222 l -2.82223,0.70556 2.11667,-1.41112 v -0.70555 l -1.05833,-0.35278 v -0.35278 l 2.46944,-0.35277 -1.41111,-2.82223 0.35278,-1.41111 -0.35278,-0.35278 -1.76389,0.70556 v -1.41111 l 1.76389,0.35278 -0.70555,-3.52778 c 1.90253,2.04399 0.95073,6.92573 3.52777,7.76111 l -0.70555,-4.23333 h 1.41111 l 0.70556,2.82222 3.175,-1.41111 c -1.17405,-2.51954 -0.66111,-5.27967 -0.35278,-8.11389 l -1.05834,-2.82222 -1.41111,0.35277 1.05834,-1.05833 -1.05834,-0.35278 v -1.76388 l -1.76389,0.35277 1.76389,1.41111 v 0.35278 c -2.79364,0.32138 -1.98719,2.75308 -2.11666,4.93889 l 1.05833,0.70556 -2.46944,-1.05834 1.05833,-3.175 h -2.11667 c 0.88935,-1.96603 0.23601,-3.7405 -1.76389,-4.58611 l -0.35278,1.41111 h 1.41112 c 0,1.85632 -0.71367,4.93924 1.41111,5.64445 -1.77906,1.0354 -2.52131,-0.39088 -3.00814,-2.11667 -0.70273,-2.4899 -0.7493,-6.74052 -3.69464,-7.76111 l 1.05833,-2.82222 -2.46944,-1.05834 c 0.71684,3.8033 0.42157,3.7973 -3.175,4.58612 l 2.11666,-4.93889 -1.05833,1.05833 h -0.35278 c -0.005,-1.12677 0.14217,-1.85949 -1.05833,-2.11667 0.61136,-1.53387 0.73166,-3.50308 -0.70556,-4.58611 v 0.70556 l -1.05833,-1.05834 -1.41111,1.05834 0.70556,-1.41111 c -1.15994,-1.02588 -1.25483,-1.6697 -1.05834,-3.175 l -1.05833,0.35277 -1.41111,-3.17499 2.46944,0.70555 -2.46944,-3.52777 c -1.02835,2.23026 -2.57175,2.71885 -4.93889,2.82222 l 1.05833,-1.76389 2.11667,0.70555 c -1.41217,-1.52823 -2.91783,-1.94945 -4.93889,-2.11666 m 16.58056,0 -1.05834,0.70555 1.05834,-0.70555 m -4.93889,1.05833 1.05833,0.70556 -1.05833,-0.70556 m 5.64444,1.41111 -1.41111,-0.35278 0.70556,-0.70555 0.70555,1.05833 m 5.64445,-0.70555 0.35277,0.35277 -0.35277,-0.35277 m -45.50834,0.35277 0.70556,0.70556 v -0.70556 h -0.70556 m 21.87222,1.41111 0.70556,1.05834 -0.70556,-1.05834 m 24.69445,0.70556 0.35278,0.35278 -0.35278,-0.35278 m -15.16945,0.35278 0.35278,0.35277 -0.35278,-0.35277 m 8.46667,0 0.35278,0.70555 h -0.70556 l 0.35278,-0.70555 m -16.58055,0.70555 -1.05834,1.41111 0.35278,-1.41111 h 0.70556 m 11.64166,0.35278 -1.05833,1.76389 1.05833,-1.76389 m -10.93611,0.70555 0.70556,1.05834 h -0.35278 l -0.70556,-0.70556 0.35278,-0.35278 m 1.76389,0 -0.70556,1.05834 0.70556,-1.05834 m 14.81667,0 v 1.05834 h -0.70556 v -1.05834 h 0.70556 m -105.833338,1.05834 -1.058334,-0.70556 1.058334,0.70556 m 4.938889,0.35278 -3.175,0.70555 c 0.829098,-1.32609 2.106753,-2.34774 3.175,-0.70555 m 103.011109,-1.05834 0.35278,1.76389 -0.35278,0.35278 h -0.70555 l 0.70555,-2.11667 m -18.69722,1.41111 -0.35278,0.35278 0.35278,-0.35278 m 23.63611,0 -0.70555,1.76389 v 0.35278 l 1.41111,0.70556 v -2.82223 h -0.70556 m -41.62778,0.35278 0.35278,0.35278 -0.35278,-0.35278 m 19.99086,0.2353 -0.11782,0.23495 0.11782,-0.23495 m -63.382523,0.11748 v 0.70555 h 0.705555 v -0.70555 h -0.705555 m 65.616663,0.35278 v 1.05833 h -0.70555 v -1.05833 h 0.70555 m 7.99642,0.11747 0.23495,0.11783 -0.23495,-0.11783 m -33.04364,0.94086 -1.41111,-0.35278 1.41111,0.35278 m 19.40278,-0.35278 -1.41111,1.41111 v -1.76389 l 1.41111,0.35278 m 20.46111,0.70556 -1.41111,-0.70556 c 0.95144,-0.30127 1.19451,-0.30021 1.41111,0.70556 m -83.255555,-0.70556 1.058333,1.76389 -1.058333,-1.76389 m -7.525809,0.47025 0.23495,0.11783 -0.23495,-0.11783 m 51.270254,0.23531 0.35278,0.70555 -0.35278,-0.70555 m 21.87222,0 0.35278,1.41111 -1.76389,0.35278 1.41111,-1.76389 m -16.22778,0.35278 -0.35277,0.70555 h 0.70555 l -0.35278,-0.70555 m 24.34167,0 -1.76389,1.41111 -0.35278,-0.35278 0.35278,-1.05833 h 1.76389 m -51.975808,0.58808 -0.11783,0.23495 0.11783,-0.23495 m 20.931368,-0.23531 v 1.41111 h 0.35277 l 1.05834,-0.70555 2.46944,0.35278 c 0.14288,1.42275 -0.55633,1.83162 -1.76389,2.46944 v 0.35278 l 0.70556,1.05833 -0.70556,-1.05833 -2.82222,-0.35278 -1.05833,-1.41111 1.05833,-2.11667 h 0.70556 m -40.686924,0.47026 0.23495,0.11782 -0.23495,-0.11782 m 83.020254,0.2353 -0.70556,1.41111 0.70556,-1.41111 m -85.019445,0.70555 0.352777,0.35278 -0.352777,-0.35278 m 87.841665,0 0.70556,1.41112 -0.70556,-1.41112 m -20.81389,0.35278 c -0.0226,1.05587 0.019,1.53317 -1.05833,1.76389 l 0.35278,-1.76389 h 0.70555 m 5.64445,0.35278 0.35278,1.41111 -1.05834,-0.35278 0.70556,-1.05833 m -13.75834,0.35278 0.35278,0.35278 -0.35278,-0.35278 m -64.911108,0.35278 v 0.70555 h 0.705556 v -0.70555 h -0.705556 m 69.497228,0 h 1.05833 l -1.41111,0.35277 0.35278,-0.35277 m 19.2853,0.47025 0.23495,0.11783 -0.23495,-0.11783 m -40.80475,0.94086 -0.70555,1.05833 v -1.05833 h 0.70555 m 45.86111,0 0.35278,0.35277 -0.35278,-0.35277 m -26.92858,0.47025 0.23495,0.11783 -0.23495,-0.11783 m -64.558338,0.35278 0.23495,0.11782 -0.23495,-0.11782 m 91.839698,0.2353 0.70556,1.05833 v -1.05833 h -0.70556 m -47.27222,0.35278 0.70555,1.76389 -0.70555,-1.76389 m 17.63889,0 0.35277,0.35278 -0.35277,-0.35278 m -13.52303,0.94086 -0.11783,0.23495 0.11783,-0.23495 m -60.20753,0.58772 c 0.272697,0 0.05644,0.17569 -0.117475,0.11783 l 0.117475,-0.11783 m 65.26389,-0.11747 v 1.05833 h -0.35278 l 0.35278,-1.05833 m 18.69722,0 -0.35278,0.35278 0.35278,-0.35278 m -26.22303,0.58808 -0.11783,0.23495 0.11783,-0.23495 m 26.92859,0.11747 h 1.76389 l 0.70555,2.11667 -1.41111,-1.41111 -1.05833,-0.70556 m -94.19167,0.35278 v 0.35278 l 1.058333,0.35278 -0.352778,1.05833 1.058334,-1.41111 -1.763889,-0.35278 m 6.702778,0 -0.705556,1.41111 0.705556,-1.41111 m 32.102778,0 0.352778,0.35278 -0.352778,-0.35278 m 26.811114,0.11748 c 0.27269,0 0.0564,0.17568 -0.11748,0.11782 l 0.11748,-0.11782 m 6.70278,-0.11748 -0.35278,0.35278 0.35278,-0.35278 m 27.16388,0.35278 -0.35277,0.35278 0.35277,-0.35278 m -28.22222,0.35278 1.05834,1.05833 -1.05834,-1.05833 m 17.99167,0 v 1.41111 h 0.35278 l -0.35278,-1.41111 m -19.40278,0.35278 0.35278,1.05833 -0.35278,-1.05833 m 6.35,0 v 0.35277 l -1.05833,0.70556 -1.05834,-0.35278 0.35278,1.05833 h -1.76389 c 0.86995,-1.31974 1.98614,-1.71414 3.52778,-1.76388 m 11.28889,0 -0.70556,2.46944 c 0.86925,-0.68121 1.17229,-1.46262 0.70556,-2.46944 m -21.16667,0.70555 v 1.05833 h -0.35277 l 0.35277,-1.05833 m 46.91945,0.35278 c -0.25047,1.07879 -0.23601,1.50565 0.70555,2.11667 l 0.35278,-1.76389 -1.05833,-0.35278 m -27.98692,0.47025 0.23495,0.11783 -0.23495,-0.11783 m 11.75914,-0.11747 -0.35278,3.175 h -0.35278 l -0.70555,-3.175 h 1.41111 m 2.82222,0.11747 c 0.2727,0 0.0564,0.17568 -0.11747,0.11783 l 0.11747,-0.11783 m 4.23334,-0.11747 2.11666,3.175 -2.82222,0.35277 1.41111,-1.05833 -0.35278,-1.41111 h -0.35277 l -0.35278,1.05833 h -0.35278 l 0.70556,-2.11666 m -109.008339,0.35277 -0.352778,0.35278 0.352778,-0.35278 m 94.544449,0 -0.35278,1.76389 1.41111,-1.05833 -0.70556,5.29167 -1.41111,1.41111 -1.05833,-0.35278 0.35278,1.76389 2.46944,0.35278 c -3.34398,2.49872 -1.57586,4.24991 1.41111,5.29166 l 0.35278,5.29167 h -0.35278 v -1.05833 h -1.05833 l -1.41111,4.23333 1.76389,-1.05833 -0.70556,1.76388 c 1.32715,-0.2286 5.0165,-1.53775 5.29167,-2.82222 h 0.35278 v 1.41111 l 2.46944,-1.76389 -3.52778,-1.05833 1.76389,-1.05833 -1.41111,-1.76389 -1.41111,2.11667 -1.76389,-2.11667 0.35278,-1.05833 c 1.94169,0.69708 2.37172,-2.29482 2.82222,-3.88056 l -1.05833,0.35278 c -0.95815,-3.44876 1.88136,-5.18442 -0.35278,-8.46667 l 1.05833,-0.35278 v -0.70555 l -3.88055,-2.46945 h -1.41111 m 9.17222,0 0.35278,1.41112 h -1.41111 v -1.41112 h 1.05833 m -116.063892,0.35278 0.352778,0.35278 -0.352778,-0.35278 m 22.342476,0.94086 0.117827,0.23495 -0.117827,-0.23495 m 69.026966,-0.2353 v 1.05833 h -0.35277 l 0.35277,-1.05833 m 28.92778,0 -1.76389,2.46944 1.76389,-2.46944 m -96.308332,0.70555 0.352777,0.35278 -0.352777,-0.35278 m 66.322222,1.05834 -0.35278,0.35277 0.35278,-0.35277 m 18.93253,0.2353 -0.11783,0.23495 0.11783,-0.23495 m -21.0492,0.47025 v 1.05833 h -0.35277 l 0.35277,-1.05833 m -4.23333,0.35278 1.41111,0.35278 -1.76389,2.46944 0.35278,-2.82222 m 25.75278,0 h 0.35278 l -0.70556,1.41111 0.35278,-1.41111 m -6.35,0.35278 0.35278,0.35277 -0.35278,-0.35277 m -95.250003,0.35277 -1.058333,2.11667 1.763889,-0.35278 v 0.35278 l -3.880556,-0.35278 3.175,-1.76389 m 115.711113,1.05834 -1.05833,-1.05834 1.05833,1.05834 m -28.575,-0.70556 0.35278,0.35278 -0.35278,-0.35278 m 24.22419,0.23531 -0.11783,0.23495 0.11783,-0.23495 m -28.8103,0.11747 -0.35278,0.35278 0.35278,-0.35278 m 1.64641,0.2353 -0.11783,0.23495 0.11783,-0.23495 m 12.11192,-0.2353 v 0.70556 l 0.70556,-0.70556 h -0.70556 m -8.11389,0.35278 v 1.05833 l 0.70556,-0.35278 v -0.35277 l -0.70556,-0.35278 m 12.7,0 v 0.70555 l -0.70555,-0.70555 h 0.70555 m 6.35,0 -0.70555,1.05833 0.70555,-1.05833 m -13.05277,2.11666 1.41111,-1.41111 -0.35278,-0.35277 -1.05833,1.76388 m 18.69722,-1.76388 v 0.35277 l -0.70556,0.70556 h 1.41111 v 1.41111 l -3.88055,0.35278 v -1.41111 l -1.76389,0.70555 0.35278,-1.41111 4.58611,-0.70555 m 2.11666,1.41111 -1.05833,-0.70556 1.05833,0.70556 m 16.93334,-0.35278 v 0.70555 l 1.41111,0.35278 v -1.41111 l -1.41111,0.35278 m -43.74445,0.35278 0.35278,0.35277 -0.35278,-0.35277 m -11.28889,0.35277 v 1.05834 h 0.35278 l 1.76389,-0.35278 -2.11667,3.175 2.46945,-0.35278 v 0.35278 l -1.76389,1.76389 h -0.35278 l -1.05833,-0.35278 -0.70556,-4.93889 1.41111,-0.35278 m 20.46112,0.11748 c 0.27269,0 0.0564,0.17568 -0.11748,0.11783 l 0.11748,-0.11783 m 6.35,0.2353 -0.35278,2.46945 h 1.05833 l -0.70555,-2.46945 m 3.52777,0.35278 -0.35277,2.82222 0.35277,-2.82222 m 4.93889,1.05833 -0.35278,0.35278 0.35278,-0.35278 m 8.46667,0.35278 -0.35278,0.35278 0.35278,-0.35278 m 4.93889,0 0.35278,1.05833 c -0.7613,-0.34501 -0.8823,-0.4191 -0.35278,-1.05833 m -15.875,0.35278 v 1.05833 h -0.35278 l 0.35278,-1.05833 m -10.23056,0.70555 -0.70555,1.05834 v -1.05834 h 0.70555 m -100.541666,1.76389 c 0.738963,1.7773 1.962115,3.66501 1.990372,5.64445 0.07585,5.31495 -4.09896,12.31265 4.00685,13.75833 0,-1.97273 -0.562892,-4.58928 1.431784,-5.74216 1.072445,-0.61983 2.68471,-0.45191 3.596922,-1.29152 0.994234,-0.91475 0.793609,-2.24155 2.02685,-3.19687 v 1.76388 c 1.583267,0.0254 2.083505,-1.43192 0.653027,-2.37595 -2.684322,-1.77201 -5.944764,-1.54411 -8.414138,-3.62127 h 4.233333 c -0.529026,-0.84208 -1.259064,-1.43898 -2.116667,-0.70555 l -7.408333,-4.23334 m 105.833336,0.35278 -0.35278,1.05833 0.35278,0.35278 1.05833,-0.35278 -0.35278,-1.05833 h -0.70555 m 33.86667,0 1.41111,2.82222 -1.76389,1.41111 -1.41111,-0.35277 1.76389,-3.88056 m -36.33612,0.70556 v 1.41111 h -0.35277 l 0.35277,-1.41111 m -24.34166,0.35277 -0.70556,3.52778 2.46945,5.99722 -1.76389,1.05834 -1.76389,-10.58334 h 1.76389 m 21.40197,0.47026 0.23495,0.11783 -0.23495,-0.11783 m 9.64247,0.58808 0.35278,0.35278 -0.35278,-0.35278 m -4.58611,0.35278 0.35278,0.35277 -0.35278,-0.35277 m 1.41111,0 0.35278,0.35277 -0.35278,-0.35277 m -7.40833,0.70555 v 1.76389 l 1.41111,-2.11667 -1.41111,0.35278 m -65.381366,0.2353 -0.117828,0.23495 0.117828,-0.23495 m 93.603586,-0.2353 0.70556,1.41111 -0.70556,-1.41111 m 15.16945,0 -1.76389,1.76389 1.76389,-1.76389 m -103.363894,0.35278 0.352777,0.35278 -0.352777,-0.35278 m -6.702778,0.70555 -0.352778,0.35278 0.352778,-0.35278 m 74.436112,0 0.70556,1.05834 0.35277,-0.35278 -0.35277,-0.70556 h -0.70556 m -102.658335,0.47026 c 0.272838,0 0.05651,0.17568 -0.117581,0.11783 l 0.117581,-0.11783 m 134.761115,-0.11748 0.35278,1.05834 -0.35278,-1.05834 m -126.294448,0.35278 1.058333,0.70556 -1.058333,-0.70556 m 103.363888,0 0.70556,0.35278 v 0.35278 l -0.70556,-0.70556 m -6.70278,0.35278 0.35278,0.35278 -0.35278,-0.35278 m 9.17223,0.35278 0.35277,1.41111 -1.05833,-1.05834 0.70556,-0.35277 m -14.46389,0.35277 0.35278,1.41111 -1.76389,1.41112 -0.35278,-2.11667 1.76389,-0.70556 m 37.74722,0.35278 -0.35278,0.35278 0.35278,-0.35278 m -57.15,0.35278 v 0.70555 l -0.70556,-0.70555 h 0.70556 m 4.58611,0 0.35278,0.35278 -0.35278,-0.35278 m 35.63056,0 -0.35278,1.05833 0.35278,-1.05833 m -89.252782,0.35278 v 0.70555 l -0.705556,-0.70555 h 0.705556 m 107.597222,0 -0.35278,0.35277 0.35278,-0.35277 m -2.82222,0.70555 0.70556,2.11667 -0.70556,-2.11667 m -21.87222,0.35278 -1.41111,1.05833 1.41111,-1.05833 m -101.952782,0.35278 -0.352778,1.41111 1.058333,-0.35278 0.352778,1.76389 h 0.352778 v -2.46944 l -1.411111,-0.35278 m 91.369442,0.35278 v 1.05833 h 0.35278 l -0.35278,-1.05833 m -71.025806,0.58808 -0.117828,0.23495 0.117828,-0.23495 m -29.163081,0.11747 -0.352778,0.35278 0.352778,-0.35278 m 97.366667,2.82222 1.76389,-0.35277 -1.76389,1.76388 c 2.01683,-0.51258 2.98627,-0.53128 3.175,-2.82222 -1.7339,-1.24248 -3.61915,-1.3215 -3.175,1.41111 m 11.64167,-2.82222 v 0.70556 h -0.70556 l 0.70556,-0.70556 m -101.952781,0.70556 0.352777,0.35277 -0.352777,-0.35277 m 88.782531,0.11747 0.23495,0.11783 -0.23495,-0.11783 m -73.965864,0.2353 -0.352778,0.35278 0.352778,-0.35278 m -15.522223,0.35278 c 0.05327,1.79458 0.527756,3.26849 2.116667,4.23334 l 0.352778,-2.11667 -2.469445,-2.11667 m 87.488887,0 -0.35277,0.35278 1.05833,0.70556 -0.70556,-1.05834 m 38.45278,0 -0.70555,2.46945 v 0.35277 l 1.05833,1.05834 -2.46944,-0.35278 0.70555,1.05833 -5.99722,5.64445 -0.70556,-1.05834 -0.35277,1.41112 c -1.16347,0.09 -1.78718,0.17109 -1.76389,1.41111 l 1.05833,-0.35278 -0.35278,0.70555 h 0.35278 l 1.05833,-1.76388 c 0.79587,0.88688 1.7272,2.9404 2.88855,3.27801 2.41864,0.70308 4.23404,-4.02449 3.81423,-5.74746 l 1.41111,-1.41111 h -0.70555 v -0.70556 h 1.05833 c 0.84561,-1.82245 2.80529,-5.47228 -0.35278,-5.99722 m -59.97222,0.35278 -0.35278,1.76389 h -0.35278 l 0.70556,-1.76389 m -62.794447,0.70556 0.352778,0.35277 -0.352778,-0.35277 m 35.277779,0 0.35278,0.35277 v 0.70556 l -1.411114,0.35278 0.352778,-1.41111 h 0.705556 m 7.40833,0 -0.35277,1.41111 h 0.35277 v -1.41111 m 43.744448,0 -0.70556,1.76388 c 0.91229,-0.50729 1.24425,-0.82091 0.70556,-1.76388 m 30.69167,0 -1.76389,3.52777 c 1.14653,-0.66181 2.10361,-2.22003 1.76389,-3.52777 m -22.81308,0.94085 0.11782,0.23495 -0.11782,-0.23495 m -28.80995,0.35278 -0.11783,0.23495 0.11783,-0.23495 m 37.15914,0.11748 c 0.6103,1.65347 1.84256,1.89971 2.82222,0.35277 l -2.82222,-0.35277 m -7.29086,0.2353 0.11783,0.23495 -0.11783,-0.23495 m -99.953588,0.11747 0.352778,2.46945 h 1.058333 l -1.411111,-2.46945 m 66.204748,0.23531 -0.11783,0.23495 0.11783,-0.23495 m 62.08889,0 -0.11783,0.23495 0.11783,-0.23495 m -81.374188,0.11747 0.35277,0.35278 -0.35277,-0.35278 m 44.097218,0 -0.35278,0.35278 v 0.35278 0.35278 l 1.05834,-1.05834 h -0.70556 m 30.69167,0.70556 1.05833,-0.70556 -1.05833,0.70556 m -110.066671,0.35278 -1.058334,0.70555 v 0.35278 l 1.411112,-0.70556 -0.352778,-0.35277 m 84.666671,0 -0.35278,0.35277 0.35278,-0.35277 m -23.98889,1.41111 -1.41111,-0.70556 1.41111,0.70556 m 0.94086,-0.47026 -0.11783,0.23495 0.11783,-0.23495 m -73.495505,0.35278 0.117616,0.23495 -0.117616,-0.23495 m 47.154647,0.11748 -0.35278,1.41111 1.058328,0.35278 -0.352778,1.41111 0.705558,-3.52778 -1.058328,0.35278 m 49.036108,-0.35278 -0.35278,2.11667 -1.05833,-1.05834 1.41111,-1.05833 m 22.93056,1.05833 1.05833,-1.05833 -1.05833,1.05833 m -119.944451,0 v 0.70556 l 0.705555,-0.70556 h -0.705555 m 2.351969,0.11748 0.23495,0.11782 -0.23495,-0.11782 m 65.381362,-0.11748 1.41111,1.41111 2.11667,-1.05833 -3.52778,4.58611 v -4.93889 m 10.23056,0 -0.35278,0.35278 0.35278,-0.35278 m 49.03611,0.35278 -0.70555,2.46944 h -0.35278 l -0.35278,-1.41111 1.41111,-1.05833 m -53.975,0.35278 -0.35278,0.35278 0.35278,-0.35278 m 5.64444,3.88055 c 1.03752,-0.5715 1.23437,-0.94756 1.05834,-2.11666 l 1.05833,-0.35278 v -0.70556 c -2.29411,-0.77576 -1.9752,1.49331 -2.11667,3.175 m 43.15637,-3.64525 0.11783,0.23495 -0.11783,-0.23495 m -28.69248,0.11748 0.35278,1.41111 -1.41111,0.35277 v -1.76388 h 1.05833 m -29.98611,0.70555 -0.35278,2.46945 h 1.05834 l -0.70556,-2.46945 m 24.22419,0.11748 0.23495,0.11782 -0.23495,-0.11782 m 7.87859,-0.11748 -0.70556,0.70556 v -0.70556 h 0.70556 m 1.29364,0.2353 -0.11783,0.23495 0.11783,-0.23495 m 27.28136,-0.2353 0.35278,0.35278 -0.35278,-0.35278 m -47.625,1.05833 -0.35278,0.35278 0.35278,-0.35278 m 11.64167,0 0.35277,0.35278 -0.35277,-0.35278 m -39.15834,0.35278 v 1.41111 h 0.35278 l -0.35278,-1.41111 m 52.56389,0.35278 0.35278,2.11667 -1.41111,-0.70556 1.05833,-1.41111 m 19.75556,0.35278 -0.35278,0.35278 0.35278,-0.35278 m -63.5,0.35278 0.35278,0.35277 -0.35278,-0.35277 m 1.76389,0 0.35277,1.41111 2.11667,1.05833 h 0.35278 c -0.35102,-1.68522 -1.20544,-2.11349 -2.82222,-2.46944 m 13.40555,0.11747 c 0.2727,0 0.0564,0.17568 -0.11747,0.11783 l 0.11747,-0.11783 m -0.70555,0.2353 -1.05834,0.70556 1.05834,-0.70556 m 15.16944,0 2.11667,3.88056 h 0.70555 l -1.05833,-3.52778 -1.76389,-0.35278 m 36.68889,0 -0.70555,1.05834 0.70555,-1.05834 m -76.552778,0.70556 v 2.11667 c 1.275638,-0.43851 1.486608,-1.16664 1.411108,-2.46945 l -1.411108,0.35278 m 0.94086,0.58808 -0.11783,0.23495 0.11783,-0.23495 m 15.051618,0 0.11782,0.23495 -0.11782,-0.23495 m 15.75752,0.82303 1.05834,-0.70556 -1.05834,0.70556 m 24.34167,-0.70556 -0.70556,1.76389 0.70556,-1.76389 m 21.51944,0 -0.70555,0.70556 v -0.70556 h 0.70555 m -50.09444,0.82303 c 0.2727,0 0.0564,0.17569 -0.11748,0.11783 l 0.11748,-0.11783 m 3.175,0.23531 v 1.41111 h 0.35278 l 0.35277,-1.41111 h -0.70555 m 9.17222,0 0.35278,1.41111 h 0.70555 l 0.35278,-0.35278 v -0.70555 l -1.41111,-0.35278 m 13.87581,0.2353 0.11783,0.23495 -0.11783,-0.23495 m 16.81586,-0.2353 0.70555,1.41111 v -1.41111 h -0.70555 m 1.88136,0.2353 0.11783,0.23495 -0.11783,-0.23495 m -50.91747,0.11748 -0.70556,1.05833 -0.35278,-0.35278 0.35278,-0.70555 h 0.70556 m 24.69444,0.35277 0.35278,0.70556 h 0.35278 l 0.35277,-0.70556 h -1.05833 m -33.51389,0.70556 -0.35278,2.46944 c 1.57692,-0.56903 2.3167,-1.85878 0.35278,-2.46944 m 1.76389,0 0.35278,0.35278 -0.35278,-0.35278 m 8.81945,0 v 2.11667 l -1.76389,0.35277 -0.35278,-2.11666 2.11667,-0.35278 m 42.68611,0 0.70555,1.05833 v -1.05833 h -0.70555 m 6.35,0 v 1.76389 c 1.14476,0.64276 1.20085,1.12994 0.35278,2.11666 v 0.35278 c 2.23308,-0.6611 2.86667,-1.69545 3.52777,-3.88055 l -3.88055,-0.35278 m -18.69723,0.35278 0.35278,1.41111 h 0.35278 v -1.41111 h -0.70556 m -8.46666,0.35277 -0.35278,1.41112 2.82222,-0.70556 -2.46944,-0.70556 m 22.225,0.35278 v 0.35278 h 2.11667 v -0.70556 l -2.11667,0.35278 m -51.85834,0.35278 v 1.05833 h 0.35278 l -0.35278,-1.05833 m 6.35,0 0.35278,0.35278 -0.35278,-0.35278 m 14.11112,0 1.05833,7.76111 -1.41111,1.41111 -1.76389,-1.76389 -1.76389,2.46945 h -0.35278 l 1.41111,-3.88056 c -1.91311,1.73567 -2.86491,4.7311 0.70556,3.52778 l 0.35278,1.76389 1.76389,-1.41111 v 1.41111 h 0.35277 l 1.41111,-2.11667 c 0.0885,2.05493 2.09621,5.28144 1.28341,7.05415 -2.15477,4.69935 -9.30028,8.53193 -13.2782,11.58769 -11.74327,9.02088 -25.490318,19.26378 -39.86354,23.31191 -3.322814,0.93556 -5.968294,2.8388 -9.525,2.84903 l -0.705555,-0.70556 c 0.352777,-2.03764 1.674988,-1.58926 2.822222,-0.35277 l 0.352778,-5.29167 2.469444,-1.41111 v -0.70556 l -0.352778,-0.35278 -3.527778,2.46945 0.352778,2.11667 h -1.763889 c 1.223786,-4.20688 -4.040364,-1.70851 -5.997222,-2.11667 v 2.11667 l 5.644445,-1.76389 c -0.475898,1.6263 -4.071762,2.56575 -5.644445,3.175 l -2.469445,-3.175 -0.705555,2.46944 -2.116667,0.70556 2.116667,-0.35278 v 1.76389 l 1.058333,-0.35278 -1.411111,3.175 h -1.411111 v 1.05833 h 1.411111 v 0.35278 c -1.507419,0.72637 -6.733822,2.53824 -8.206317,1.39982 -1.083733,-0.83749 -3.351741,-7.98371 -2.249664,-8.79969 1.458736,-1.07985 4.169481,-0.81209 5.86987,-1.3663 4.715581,-1.53706 9.389533,-3.28754 14.111111,-4.84999 5.940425,-1.96568 10.594975,-5.93337 16.227778,-8.25606 l -1.058333,2.11667 c 1.526822,0.41133 2.642306,0.65722 3.175005,-1.05834 l -1.411116,1.05834 0.705556,-1.41112 c -0.545748,-2.28458 3.15207,-5.63174 5.29167,-4.23333 0.69956,-1.3843 1.1751,-2.25883 2.822218,-2.11667 0.56797,-3.5433 5.01333,-3.58069 6.70278,-6.70277 l 1.76389,0.35277 c 0.62724,-1.50741 1.59526,-2.39006 3.175,-2.82222 l -0.35278,-1.05833 2.46944,-1.76389 1.05834,0.70556 c 0.53022,-2.51531 2.97144,-3.58317 4.83834,-5.06907 2.27366,-1.80975 4.93819,-3.60715 6.91621,-5.72099 2.24508,-2.3996 4.63691,-5.80461 7.64823,-7.20161 m 3.52777,0 1.05834,0.70556 -1.05834,-0.70556 m 32.10278,0 0.35278,0.35278 -0.35278,-0.35278 m -8.81944,0.35278 -2.11667,2.82222 3.52778,-1.05833 -0.70556,-1.76389 h -0.70555 m -21.16667,0.35278 v 1.05833 l 1.05833,-0.35278 v -0.35278 l -1.05833,-0.35277 m 8.46667,0 0.35277,1.41111 0.35278,-1.41111 h -0.70555 m 20.57858,0.58808 0.11783,0.23495 -0.11783,-0.23495 m -55.50358,3.29247 1.41111,-1.41111 c -0.46779,-2.69346 -3.76908,-1.45768 -1.41111,1.41111 m 31.04444,-2.82222 0.35278,0.35278 -0.35278,-0.35278 m -22.93055,1.05833 h -1.05834 l 0.35278,-0.70555 0.70556,0.70555 m 25.4,-0.70555 v 0.70555 h 0.70555 v -0.70555 h -0.70555 m -52.211118,0.35277 0.35278,0.35278 -0.35278,-0.35278 m 74.788888,0 1.05834,0.70556 -1.05834,-0.70556 m -61.26586,0.58808 0.11783,0.23495 -0.11783,-0.23495 m 55.26864,-0.2353 0.35278,0.35278 -0.35278,-0.35278 m -72.672222,0.35278 v 0.70556 h -1.058333 v -0.70556 h 1.058333 m 42.333332,0.35278 0.35278,1.76389 h 0.35278 l -0.70556,-1.76389 m 30.69167,0 c -1.56069,1.18992 -3.16159,0.82973 -3.52778,3.175 h -1.05833 c -0.13194,4.11938 -2.26801,3.62232 -5.29167,3.175 -0.33514,2.20204 -6.08506,7.55156 -3.175,9.525 v 0.70555 l -2.82222,3.88056 -1.41111,-0.70556 c -1.34973,3.49109 -6.26851,11.67448 -10.58334,10.58334 l -0.35277,2.46944 h -0.35278 v -1.41111 l -2.11667,0.35278 0.35278,1.76389 -1.41111,-0.35278 c -0.3683,1.42134 -1.05692,2.08421 -2.46945,2.46944 l 0.70556,1.05834 -1.05833,0.35277 0.70555,0.70556 -1.76389,0.70555 0.35278,1.41112 h -2.11667 l -0.35277,1.41111 h -1.76389 l 1.05833,1.05833 -0.70555,1.05833 1.41111,1.05834 -1.41111,-0.35278 -0.70556,2.11667 h -0.35278 l -0.35278,-1.41112 c -1.10454,1.22167 -1.74766,2.37208 -3.52777,2.11667 l -1.05834,2.46945 h -0.70555 l -0.35278,-1.76389 -0.70556,4.58611 -2.82222,0.35278 v 0.35277 l 1.05834,-0.35277 0.35277,0.35277 -0.35277,1.41111 1.41111,-0.70555 -2.46945,3.88055 h -0.35278 l 0.70556,-2.82222 -2.46944,1.05834 0.70555,1.41111 v 0.35277 c -2.88184,0.35313 -2.42358,-0.71931 -4.58611,-2.11666 l 2.82222,-3.52778 c -3.66818,0.92075 -5.41055,3.32422 -8.11389,5.64444 l -0.35278,-1.05833 h -0.70555 l -0.35278,1.41111 1.05833,0.35278 -0.70555,2.11667 -2.11667,-0.70556 c -0.881238,1.07844 -1.448148,1.27706 -2.822218,1.05833 -0.23989,1.46827 0.0797,2.14913 1.41111,2.82223 -0.0854,2.27753 1.466848,1.83127 3.174998,1.38147 2.72097,-0.71649 6.96137,-2.35867 9.3218,-3.91971 4.32294,-2.85962 9.02759,-4.97911 13.25598,-7.94279 6.65692,-4.66584 12.54301,-10.44822 18.34444,-16.10678 3.38597,-3.30235 9.11225,-6.46782 8.11389,-11.86497 1.15465,-0.3108 2.70863,-0.22331 3.71546,-0.8636 2.50331,-1.59103 3.46216,-5.29237 5.10011,-7.58402 1.52682,-2.13571 3.59092,-3.175 3.88443,-6.01627 l -1.76388,-0.70555 2.82222,0.70555 0.70555,-3.88055 0.70556,1.05833 h 0.35278 l 0.35277,-1.41111 -2.11666,-2.46945 1.05833,-1.05833 h -3.88055 l 4.58611,-1.41111 v -0.70556 l -2.11667,-0.70555 m -15.52222,0.35278 0.35277,0.35277 -0.35277,-0.35277 m -4.23334,0.35277 -0.35277,1.05834 0.35277,-1.05834 m 26.45834,0 v 1.76389 h 0.35278 l -0.35278,-1.76389 m -57.50278,0.70556 1.05833,1.41111 -0.35278,-1.41111 h -0.70555 m 27.16389,0 -1.05834,2.11667 0.35278,1.41111 -0.70555,1.05833 c 2.1343,-0.64029 2.44722,-2.57422 2.46944,-4.58611 h -1.05833 m -31.39722,0.70555 v 0.70556 h -0.70556 v -0.70556 h 0.70556 m 48.33055,0 v 1.05834 l 1.05833,-0.35278 v -0.35278 l -1.05833,-0.35278 m -46.56667,0.35278 1.41112,1.76389 v -1.41111 l -1.41112,-0.35278 m -14.111108,1.41111 -1.05833,1.05834 0.35278,-1.05834 h 0.70555 m 3.645248,0.94086 0.11783,0.23495 -0.11783,-0.23495 m 10.93612,0 0.11782,0.23495 -0.11782,-0.23495 m 29.98611,0.35278 0.11783,0.23495 -0.11783,-0.23495 m -14.58137,2.58692 -1.05833,0.70555 c -0.44379,1.67111 0.0751,2.47015 1.76389,2.82223 l 0.70556,-1.76389 1.41111,0.70555 1.05833,-2.82222 -3.88056,0.35278 m 4.58612,-0.70556 -0.35278,2.82223 1.05833,-0.35278 -0.70555,-2.46945 m -29.98612,0.70556 v 0.70555 h -0.70555 l 0.70555,-0.70555 m 31.39723,1.76389 1.41111,-1.76389 -1.41111,1.76389 m -34.572228,-1.05834 -0.35278,1.41112 h -0.35277 l -0.35278,-1.41112 h 1.05833 m 2.116668,0 -0.35278,0.35278 0.35278,-0.35278 m 23.40081,1.29364 0.11783,0.23495 -0.11783,-0.23495 m 9.40752,0.11748 0.35278,0.35277 -0.35278,-0.35277 m -9.525,1.05833 -0.35277,2.11666 c -2.84586,0.57856 -2.54318,2.59222 -3.175,4.93889 1.56915,-0.26211 1.71767,-0.99554 1.41111,-2.46944 l 3.88055,-1.76389 -0.70555,-2.82222 h -1.05834 m -26.811108,0.35278 v 1.76388 c 2.12972,0.74825 3.073748,4.93219 1.3589,6.49288 -6.970536,6.344 -17.841383,10.37026 -26.406122,14.08218 -2.354792,1.02059 -7.160683,3.66572 -9.757833,2.4952 -2.167114,-0.97719 -2.852562,-5.82119 -2.942167,-7.90081 3.75673,-0.19297 9.682339,-2.44334 13.052778,-4.12291 2.003072,-0.99801 3.601508,-2.97604 5.997222,-2.57987 1.252008,-2.06234 4.235803,-2.60844 6.35,-3.53307 4.192764,-1.83374 8.459962,-4.30071 12.347222,-6.69748 m 2.11667,0.47025 c 0.2727,0 0.0564,0.17568 -0.11748,0.11783 l 0.11748,-0.11783 m 45.508328,1.29363 -0.35277,0.35278 0.35277,-0.35278 m -52.211108,2.82223 c 0.80892,1.13312 1.68734,0.93062 2.11667,-0.35278 l -2.11667,0.35278 m 31.749998,0 -0.70555,4.23333 c 1.33455,-1.1176 2.3943,-2.9464 0.70555,-4.23333 m -28.574998,1.41111 0.35278,0.35278 -0.35278,-0.35278 m 23.636108,6.70278 h 0.35278 l 1.05833,-4.58612 c -2.39642,0.64665 -2.47967,2.5841 -1.41111,4.58612 m -39.158331,-1.41112 1.058333,2.46945 c -1.781527,0.97966 -2.591152,2.32128 -3.175,4.23333 3.704167,-0.97825 4.205464,-4.77555 6.35,-7.40833 l -0.352777,1.41111 2.469444,-0.70556 0.352778,-2.82222 -6.702778,2.82222 m 6.702778,1.05834 3.880556,-2.11667 -0.705556,-1.76389 c -1.850319,0.73307 -3.021894,1.84679 -3.175,3.88056 m 55.386113,-2.82222 0.35278,0.35277 -0.35278,-0.35277 m 8.11389,1.41111 -0.35278,1.41111 h -0.35278 v -1.41111 h 0.70556 m -37.39445,0.35277 v 0.70556 h 0.70556 v -0.70556 h -0.70556 m 27.3992,0.47026 0.23495,0.11783 -0.23495,-0.11783 m -62.676975,1.64641 -1.763889,-0.35278 2.116666,1.76389 -0.352777,-1.41111 1.411111,-1.41111 -1.411111,1.41111 m 33.513885,-0.70555 0.35278,1.41111 -1.76389,2.11666 c 1.37972,-0.23001 1.65806,-0.75353 1.76389,-2.11666 l 1.41111,0.35277 0.35278,-1.76388 h -2.11667 m -27.516663,1.41111 v 0.35277 l 2.116667,-1.05833 -2.116667,0.70556 m 3.057525,-0.58808 0.23495,0.11782 -0.23495,-0.11782 m 53.504398,0.11782 0.11783,0.23495 -0.11783,-0.23495 m -69.614701,1.17581 0.352778,1.41111 -1.058334,-0.35277 3.175,2.82222 c -3.52e-4,-2.1329 0.200731,-4.08129 -2.469444,-3.88056 m 6.702778,1.05834 -1.058334,1.76388 h 1.058334 v -1.76388 m 30.338893,1.05833 0.35277,0.35278 -0.35277,-0.35278 m -5.99723,2.11667 1.76389,0.35277 -0.35278,-1.41111 -1.41111,1.05834 m -4.233328,-0.70556 v 2.46944 l 1.41111,2.11667 1.763888,-0.70555 -0.35278,-1.41112 -1.411108,0.70556 -0.35278,-1.05833 1.41111,-0.70556 h -1.41111 l -1.05833,-1.41111 m -28.575002,0.35278 0.352778,0.35278 -0.352778,-0.35278 m 17.286111,0.35278 c -0.849841,2.42711 -3.197225,3.49885 -5.644444,3.52777 l 5.644444,-3.52777 m 14.816669,0.70555 v 0.70556 l 0.70555,-0.70556 h -0.70555 m 1.76389,0.35278 0.35277,0.35278 -0.35277,-0.35278 m -32.102781,0.35278 0.352778,0.35277 -0.352778,-0.35277 m 23.636113,0 -0.70556,1.41111 1.05834,0.35278 -0.35278,-1.76389 m 5.29167,1.05833 -0.35278,0.35278 0.35278,-0.35278 m -3.175,0.70556 1.05833,1.41111 v -1.76389 l -1.05833,0.35278 m -8.819449,1.76388 1.411111,-1.41111 -1.411111,1.41111 m -7.408334,-1.05833 -1.058333,0.70556 1.058333,-0.70556 m 13.758333,0.70556 -0.35278,1.05833 c -2.481436,-0.31821 -2.635953,1.67005 -0.70555,2.82222 l 1.76389,-3.88055 h -0.70556 m 5.64445,0 0.35277,1.76389 -0.35277,-1.76389 m -9.995258,0.47025 0.23495,0.11783 -0.23495,-0.11783 m 38.923036,-0.11748 v 0.70556 h 0.70555 v -0.70556 h -0.70555 m -50.800005,0.35278 -1.411112,1.05834 1.411112,-1.05834 m 11.994444,0.70556 0.352778,0.35278 -0.352778,-0.35278 m 47.272221,0.70555 0.35278,0.35278 -1.05833,0.70556 0.70555,-1.05834 m -17.28611,1.41111 1.05833,-1.05833 -1.05833,1.05833 m -35.277778,-0.35277 -1.058333,2.46944 0.352778,-1.41111 -3.527778,-0.70556 v 3.175 l 1.058333,0.35278 c -0.326672,2.19957 0.218017,4.71629 2.822223,4.23334 l 0.705555,-2.11667 -0.352778,1.76389 h 3.880556 v -2.46945 l -1.058333,0.35278 c -0.05256,-2.0574 -1.33597,-4.25591 -2.822223,-5.64444 m 7.055556,1.05833 -0.352778,2.46944 1.411112,0.35278 -0.352778,-1.76389 1.411108,0.70556 0.35278,-1.76389 -1.05833,0.70556 h -0.35278 -0.352778 v -0.70556 h -0.705556 m 33.866672,0.70556 0.70555,0.70555 v -0.70555 h -0.70555 m -40.922228,1.41111 0.352778,1.76389 c -0.862189,-0.56727 -0.939094,-0.91264 -0.352778,-1.76389 m 43.744448,0 -0.35278,0.35277 0.35278,-0.35277 m -54.327781,1.76389 1.058333,-1.41112 -1.058333,1.41112 m 8.819445,-1.05834 0.352777,1.05834 h -1.058333 l 0.705556,-1.05834 m -7.055556,1.05834 1.058333,-0.70556 -1.058333,0.70556 m 43.744442,1.76388 1.76389,-0.70555 -0.70555,2.46944 c 2.27647,-0.37182 1.90711,-1.99531 1.76389,-3.88055 l -2.82223,2.11666 m -39.158331,-0.70555 -0.352778,1.05833 0.352778,-1.05833 m -1.411111,0.35278 0.352778,0.35277 -0.352778,-0.35277 m 38.805552,0.35277 c -1.79881,0.73943 -3.05293,0.40288 -3.88055,2.46945 l 4.58611,-0.70556 -0.70556,-1.76389 m -38.099997,0.70556 v 0.70556 l 0.705556,-0.70556 h -0.705556 m 35.983337,2.11667 v 3.175 l 1.41111,0.35277 v -3.88055 l -1.41111,0.35278 m -7.76111,1.41111 2.46944,-1.05834 c -1.20685,-0.45332 -1.87184,-0.0264 -2.46944,1.05834 m 15.52222,-1.05834 v 0.70556 h -0.70556 l 0.70556,-0.70556 m -49.741669,0.35278 -3.175,2.46945 3.880556,-0.35278 v 0.35278 l -7.761112,2.11666 1.058334,-1.05833 c -0.858309,-4.13173 3.33128,-3.03283 5.997222,-3.52778 m 38.452779,1.05834 v 2.46944 h 0.70556 v -2.46944 h -0.70556 m -42.686112,0.35277 v 0.35278 h 1.058333 l -1.058333,-0.35278 m -5.997223,0.70556 v 1.41111 l 1.411112,-1.76389 -1.411112,0.35278 m 50.094445,-0.35278 0.35278,2.11667 h 0.35278 l 0.70555,-2.11667 h -1.41111 m 5.99722,0.35278 -0.35277,0.35278 0.35277,-0.35278 m 1.41111,0 v 0.70555 h -0.70555 l 0.70555,-0.70555 m -17.28611,0.35278 -2.11667,2.46944 3.175,-0.35278 -1.05833,-2.11666 m 4.23334,1.05833 1.05833,-1.05833 -1.05833,1.05833 m -2.11667,-0.70556 v 0.70556 l 0.70556,-0.70556 h -0.70556 m 15.16944,0.35278 c -0.12029,1.52294 -0.63253,2.10467 -2.11666,2.46945 l 1.41111,-2.46945 h 0.70555 m -59.619441,0.35278 -0.705556,1.76389 1.411111,-1.76389 h -0.705555 m 58.090861,0.2353 -0.11783,0.23495 0.11783,-0.23495 m -1.29364,0.11748 -0.70555,1.05833 0.70555,-1.05833 m -59.619444,0.35278 -0.352777,0.70555 0.352777,-0.70555 m 41.627776,0.35277 0.352778,0.35278 -0.352778,-0.35278 m 5.879748,0.47026 0.23495,0.11782 -0.23495,-0.11782 m 5.76192,0.2353 1.05834,0.70555 -0.35278,-1.05833 -0.70556,0.35278 m -7.40834,0 -1.76388,0.35278 v 1.76389 l 2.46944,-1.76389 -0.70556,-0.35278 m 5.29168,0.70555 0.70555,1.05834 0.35278,-0.35278 -0.35278,-0.70556 h -0.70555 m -2.11667,1.05834 v 1.05833 h -0.70556 v -1.05833 h 0.70556 m -27.163891,1.41111 -0.352778,0.70555 h 0.705556 l -0.352778,-0.70555 m 14.463893,0 v 2.11667 l 1.05833,-0.35278 -1.05833,-1.76389 m 4.58611,1.41111 1.411108,-0.35278 -1.411108,0.35278 m -2.46945,-0.70556 -0.35277,0.70556 h 0.70555 l -0.35278,-0.70556 m -19.049997,1.76389 2.116666,-1.41111 -2.116666,1.41111 m 3.880555,-1.41111 -3.527778,5.64445 h -0.705555 l -0.352778,-0.35278 0.705556,-1.41111 -1.763889,1.41111 -0.352778,-1.41111 -2.116667,1.05833 -0.352778,-1.76389 -2.116666,0.35278 v 0.35278 h 1.058333 l -3.527778,1.05833 c -1.717675,-0.38982 -2.9845,-0.20532 -3.880555,1.41111 h -0.352778 v -1.41111 l -2.116667,0.35278 0.352778,1.05833 c -1.852084,-0.21061 -6.584245,0.51188 -6.35,2.82222 -1.036814,0.1524 -2.908018,0.31539 -3.567783,1.25695 -0.645266,0.9211 1.265908,6.1789 2.156672,6.85694 v -1.76389 h 0.352777 v 1.76389 c 1.340203,-0.29316 0.120298,-5.79331 3.14572,-5.27191 0.591255,0.1016 1.305983,1.0481 1.793169,1.39136 l 0.705556,-2.82223 h 0.705555 l 0.352778,0.35278 v 0.70556 l -1.058333,0.35278 c 1.616428,2.62113 4.851753,1.93428 7.408333,1.41111 l -0.705555,-1.76389 7.055556,-0.70556 -2.116667,2.82222 h 4.586111 l -0.352778,-1.05833 h 1.058334 v -0.35278 l -0.705556,-1.05833 1.763889,-1.05833 0.352778,1.05833 5.644444,-2.11667 -0.705555,-1.05833 v -0.35278 l 1.058333,-4.93889 c -1.366661,0.21273 -2.361847,0.77964 -2.822222,2.11667 -1.64465,-1.3776 -0.451556,-3.12102 -0.705556,-4.93889 m 16.227782,0.70556 0.35277,1.05833 -0.35277,-1.05833 m 3.174998,0 0.35277,0.70555 h 0.35278 l 0.35278,-0.70555 h -1.05833 m 5.29167,0 v 1.05833 h -1.05834 v -1.05833 h 1.05834 m 5.64444,0 -0.35278,0.35278 0.35278,-0.35278 m -18.697218,1.76389 1.76388,-0.70556 -1.76388,0.70556 m 2.11666,-0.35278 -0.70555,3.175 h -0.35278 l -1.41111,-1.76389 c -1.085147,0.9652 -1.322214,1.75331 -1.058336,3.175 l 1.058336,-1.41111 3.175,2.46944 h 0.35278 v -1.76389 h -1.41112 c 1.06645,-1.379 1.70533,-2.45745 1.41112,-4.23333 l -1.05834,0.35278 m 9.877778,0 -1.05834,0.70555 1.05834,-0.70555 m 1.64642,0.58808 -0.11783,0.23495 0.11783,-0.23495 m -30.574197,0.11747 0.352778,0.35278 -0.352778,-0.35278 m 25.399997,0.35278 v 0.70556 h -0.70555 v -0.70556 h 0.70555 m -15.522219,0.70556 v 0.70555 h 1.763889 l -1.763889,-0.70555 m 2.116667,0.35278 0.705556,0.70555 v -0.70555 h -0.705556 m -4.586111,0.35277 v 1.76389 h -0.705556 v -1.76389 h 0.705556 m 3.880556,0.35278 0.352777,2.46944 -1.058333,0.35278 0.352778,1.76389 h -2.116667 v 0.35278 c 3.687586,1.33209 3.0226,-1.84185 3.880556,-4.58611 l -1.411111,-0.35278 m 2.116666,0 0.352778,0.35278 -0.352778,-0.35278 m -17.286111,1.05833 -1.058334,-0.70555 1.058334,0.70555 m 27.516664,-0.70555 -0.35277,0.35278 0.35277,-0.35278 m -31.749998,0.35278 -0.352777,0.35277 0.352777,-0.35277 m 11.524192,0.2353 -0.117828,0.23495 0.117828,-0.23495 m 6.35,-0.11783 0.23495,0.11783 -0.23495,-0.11783 m 7.290506,0.82338 0.11783,0.23495 -0.11783,-0.23495 m -14.581364,1.52859 h -1.763889 c 0.450497,-1.35608 1.313392,-1.35608 1.763889,0 m 7.525808,-0.82303 0.117828,0.23495 -0.117828,-0.23495 m 5.762273,0.23495 0.23495,0.11783 -0.23495,-0.11783 m -16.463081,1.64641 -2.469445,-0.35277 0.352778,-1.05834 2.116667,1.41111 m -2.822222,-0.35277 h -1.058334 l 0.352778,-0.70556 0.705556,0.70556 m 16.110303,-0.23531 0.23495,0.11783 -0.23495,-0.11783 m -18.22697,0.94086 v 0.35278 h -2.116667 l 2.116667,-0.35278 m 3.527778,0 v 0.35278 l -2.116667,0.35278 2.116667,-0.70556 m -2.822223,0.47025 c 0.272698,0 0.05644,0.17569 -0.117475,0.11783 l 0.117475,-0.11783 m 4.586112,-0.11747 -1.411111,1.05833 1.411111,-1.05833 m 3.527777,2.11667 2.469445,0.70555 0.352778,-0.35278 v -0.70555 l -0.352778,-0.35278 -2.469445,0.70556 m -3.880555,-0.35278 v 0.70555 h -0.705556 l 0.705556,-0.70555 m -25.047223,0.35278 v 4.23333 h 2.116667 l -2.116667,-4.23333 m 5.997223,3.52777 h 1.058333 l -0.352778,-0.70555 -0.705555,0.70555 m 7.408333,2.46945 v 0.35278 l 7.408333,-0.70556 -0.352777,-1.05833 c -2.639131,0.44838 -5.158317,-0.43427 -7.055556,1.41111 m -11.994445,-1.05834 1.411111,1.05834 -1.411111,-1.05834 m -1.058333,0.35278 0.352778,0.35278 z"
       id="path76"
       inkscape:connector-curvature="0" />
  </g>
</svg>
